# xmcd CD database file
#
# Track frame offsets:
#	150
#	25941
#	48136
#	50356
#	78634
#	109224
#	137213
#	141897
#	168103
#	195848
#	222493
#	224397
#	259770
#	282671
#	312326
#
# Disc length: 4504 seconds
#
# Revision: 3
# Processed by: cddbd v1.5.2PL0 Copyright (c) Steve Scherf et al.
# Submitted via: CDex 1.70beta2
#
DISCID=e111960f
DTITLE=NewSong - Rescue: Live Worship
DYEAR=2005
DGENRE=CCM 2001-2010
TTITLE0=Blessed Be Your Name - Matt Redman
TTITLE1=Psalm 40 - Eddie Carswell, Michael O'Brien
TTITLE2=Welcome (talking)
TTITLE3=You Are Holy (Prince of Peace) - Tammi Rhoton
TTITLE4=Wonderful Maker - Matt Redman, Chris Tomlin
TTITLE5=How Great Thou Art - Stuart K. Hine
TTITLE6=Morning Time (talking)
TTITLE7=Before the Day - Eddie Carswell, Michael O'Brien
TTITLE8=Your Favorite Name Is Father - Eddie Carswell, Michael O'Brien
TTITLE9=I'll Rise - Jared Anderson
TTITLE10=Michael Reflects (talking)
TTITLE11=Rescue - Jared Anderson
TTITLE12=Every Day's Another Day (Journey to Eternity) - Matt Bailey, Eddie Carswell, Scotty Wilbanks, Jack Eason
TTITLE13=My Glorious - Stu Garrard
TTITLE14=Arise My Love (new live version) - Eddie Carswell
EXTD=YEAR: 2005
EXTT0=
EXTT1=
EXTT2=
EXTT3=
EXTT4=
EXTT5=
EXTT6=
EXTT7=
EXTT8=
EXTT9=
EXTT10=
EXTT11=
EXTT12=
EXTT13=
EXTT14=
PLAYORDER=
